<svg id="Layer_1" data-name="Layer 1" xmlns="http://www.w3.org/2000/svg" viewBox="0 0 1377.5 453.5">
  <defs>
    <style>
      .cls-1 {
        fill: none;
      }

      .cls-2 {
        fill: aqua;
        stroke: #000;
        stroke-miterlimit: 10;
      }
    </style>
  </defs>
  <g>
    <path class="cls-1" d="M1376.5,648.52v152h1v-152Z" transform="translate(0 -347)"/>
    <path class="cls-2" d="M1290.57,373.5c-38,0-38-26-76-26s-38,26-75.95,26-38-26-76-26-38,26-76,26-38-26-75.95-26-38,26-76,26-38-26-75.94-26-38,26-75.95,26-38-26-76-26-38,26-75.94,26-38-26-76-26-38,26-75.94,26-38-26-75.94-26-38,26-75.95,26-38-26-75.95-26-38,26-75.94,26c-37.62,0-38-25.5-74.92-26v152h1365v-152C1328.57,348,1328.2,373.5,1290.57,373.5Z" transform="translate(0 -347)"/>
  </g>
</svg>
