<svg id="Mill" xmlns="http://www.w3.org/2000/svg" viewBox="0 0 74 118.27">
  <defs>
    <style>
      .cls-1 {
        fill: #878787;
      }

      .cls-2 {
        fill: #fff;
      }
    </style>
  </defs>
  <path class="cls-1" d="M32.1,104.84" transform="translate(-53.15 -42.62)"/>
  <g id="millBladesObject">
    <rect class="cls-2" width="74" height="74"/>
    <g id="millBlades">
      <ellipse class="cls-1" cx="33.79" cy="36.36" rx="4.94" ry="4.92"/>
      <path class="cls-1" d="M86.26,79.93s38.38.5,38.2.32a2,2,0,0,1-.32-.71l-30.4-4.76-7.48,2.75" transform="translate(-53.15 -42.62)"/>
      <path class="cls-1" d="M85.82,77.4s-21.46,31.74-21.2,31.68a2,2,0,0,1,.77.13L86,86.46l1.79-7.75" transform="translate(-53.15 -42.62)"/>
      <path class="cls-1" d="M87.3,77.46S65.59,45.9,65.54,46.16a1.91,1.91,0,0,1-.39.66L78.77,74.34l6.57,4.5" transform="translate(-53.15 -42.62)"/>
    </g>
  </g>
  <g id="MillBase">
    <path class="cls-1" d="M86.81,160.85h23c0-4.92-10.38-9-23-9s-23,4.05-23,9v0Z" transform="translate(-53.15 -42.62)"/>
    <path class="cls-1" d="M87.81,82.18c-.67,0-1.34,0-2,0q-1.68,35.46-3.35,70.92,4.35.21,8.69,0Q89.49,117.64,87.81,82.18Z" transform="translate(-53.15 -42.62)"/>
    <circle class="cls-1" cx="33.66" cy="36.54" r="5"/>
  </g>
</svg>
